<?xml version="1.0" standalone="no"?>
<!DOCTYPE svg PUBLIC "-//W3C//DTD SVG 20010904//EN"
 "http://www.w3.org/TR/2001/REC-SVG-20010904/DTD/svg10.dtd">
<svg version="1.0" xmlns="http://www.w3.org/2000/svg"
 width="700.000000pt" height="700.000000pt" viewBox="0 0 700.000000 700.000000"
 preserveAspectRatio="xMidYMid meet">
<metadata>
Created by potrace 1.14, written by Peter Selinger 2001-2017
</metadata>
<g transform="translate(0.000000,700.000000) scale(0.100000,-0.100000)"
fill="#000000" stroke="none">
<path d="M3617 6883 c-9 -30 -48 -136 -62 -168 -7 -16 -18 -46 -25 -65 -7 -19
-16 -44 -21 -55 -5 -11 -51 -132 -103 -270 -51 -137 -146 -389 -211 -560 -65
-170 -132 -350 -151 -399 -18 -48 -35 -90 -38 -93 -6 -6 -47 22 -192 134 -142
110 -658 507 -704 543 -18 14 -139 107 -269 206 -130 100 -237 181 -238 180
-2 -1 8 -40 21 -87 25 -87 193 -701 206 -754 17 -63 120 -442 130 -475 6 -19
32 -115 59 -213 l48 -178 -201 6 c-110 3 -248 8 -306 10 -58 2 -204 7 -325 10
-121 3 -269 8 -330 10 -60 2 -213 7 -340 10 -126 4 -232 8 -235 8 -3 1 -6 -2
-8 -6 -2 -5 28 -33 65 -64 37 -30 79 -65 93 -76 14 -12 84 -69 155 -127 72
-58 139 -112 150 -122 25 -21 266 -217 493 -400 l173 -140 185 123 c101 68
184 126 184 130 0 3 -26 27 -58 52 -31 25 -66 54 -77 64 -11 10 -37 31 -57 47
-44 33 -48 44 -13 40 14 -1 125 -5 248 -9 297 -8 496 -14 649 -20 l128 -5 -6
32 c-3 18 -10 44 -14 58 -5 14 -54 192 -109 395 -55 204 -105 390 -112 415 -7
25 -14 50 -15 55 -1 6 -7 25 -13 43 -5 19 -6 32 -1 30 8 -3 561 -434 761 -594
l77 -62 15 37 c21 52 49 128 101 271 25 69 84 231 131 360 48 129 93 255 101
280 14 43 33 74 35 55 0 -6 2 -17 4 -25 9 -41 285 -983 288 -987 5 -4 465 302
488 326 9 9 41 90 72 181 31 91 81 237 111 325 31 88 56 161 56 162 0 3 -164
-108 -362 -243 l-107 -74 -20 63 c-11 34 -124 411 -251 837 -128 426 -235 779
-240 783 -4 5 -10 0 -13 -10z"/>
<path d="M5313 5996 l-301 -201 -40 -115 c-22 -63 -84 -239 -137 -390 -53
-151 -105 -302 -116 -335 -11 -33 -24 -69 -29 -80 -4 -11 -14 -36 -20 -55 -14
-42 -140 -404 -203 -582 l-45 -128 42 -1 c22 -1 59 -2 81 -4 22 -1 119 -6 215
-10 96 -4 198 -8 225 -10 28 -2 133 -6 235 -10 102 -4 199 -8 217 -9 17 0 34
-3 36 -6 3 -3 -16 -19 -41 -37 -26 -17 -135 -92 -242 -165 -107 -74 -267 -183
-355 -243 -88 -60 -174 -119 -192 -133 l-32 -24 32 -26 c18 -15 34 -29 37 -32
3 -3 41 -35 85 -70 44 -35 82 -67 85 -70 3 -3 26 -23 53 -44 l47 -38 143 96
c78 54 273 187 432 296 160 109 332 227 383 262 110 75 586 401 759 520 66 45
120 84 119 86 -2 1 -63 4 -137 7 -279 11 -538 22 -703 30 -55 3 -165 8 -245
11 -80 3 -182 7 -226 9 -44 2 -161 7 -260 10 -99 4 -184 10 -188 15 -10 9 -17
-13 278 800 259 712 316 872 313 875 -2 1 -139 -88 -305 -199z"/>
<path d="M2019 3787 c-26 -18 -118 -81 -205 -140 -88 -60 -213 -145 -279 -190
-66 -46 -190 -130 -275 -189 -85 -58 -202 -138 -260 -178 -58 -39 -143 -97
-190 -128 -47 -31 -87 -59 -90 -62 -3 -3 -59 -42 -125 -87 -67 -45 -148 -100
-180 -122 -33 -22 -88 -60 -122 -83 -34 -23 -61 -43 -59 -45 1 -1 65 -5 142
-8 76 -3 191 -7 254 -10 204 -9 362 -15 485 -20 66 -2 174 -7 240 -10 66 -3
183 -7 260 -10 173 -6 369 -16 372 -18 3 -4 -103 -306 -459 -1310 -72 -202
-128 -370 -126 -372 2 -2 85 50 183 117 99 66 464 310 810 543 548 367 827
554 858 576 7 5 -116 402 -129 418 -2 2 -196 -124 -431 -281 -235 -156 -433
-287 -440 -291 -7 -4 -1 24 14 65 199 561 326 929 322 932 -2 2 -76 7 -164 10
-221 9 -353 15 -470 21 -55 3 -165 7 -245 11 -80 3 -146 7 -147 8 -1 1 35 27
80 58 288 198 752 529 752 536 0 7 -21 27 -186 173 -93 84 -136 119 -140 118
-2 0 -25 -15 -50 -32z"/>
<path d="M5382 3118 c-170 -113 -181 -123 -164 -137 9 -9 58 -49 107 -90 50
-41 96 -80 104 -87 11 -10 -9 -12 -105 -8 -314 10 -439 14 -686 20 l-267 6 19
-68 c21 -78 57 -215 102 -384 54 -206 98 -373 122 -465 13 -49 22 -92 21 -94
-3 -3 -42 27 -136 103 -9 7 -47 37 -85 67 -38 29 -125 98 -194 152 -69 54
-132 104 -140 110 -9 7 -71 56 -139 111 -67 54 -126 94 -131 90 -4 -5 -17 -36
-30 -69 -12 -33 -32 -87 -45 -120 -13 -33 -58 -152 -100 -265 -41 -113 -80
-214 -85 -225 -5 -11 -33 -84 -62 -162 -50 -135 -68 -168 -68 -123 0 10 -4 29
-9 42 -5 13 -24 69 -41 126 -17 57 -35 102 -39 100 -5 -2 -89 -57 -188 -122
l-181 -120 18 -60 c10 -34 40 -137 68 -231 99 -332 235 -792 282 -953 27 -90
51 -166 54 -169 3 -3 8 3 11 13 4 10 25 69 47 129 23 61 54 146 70 190 17 44
34 89 38 100 5 11 68 180 140 375 331 893 311 840 317 840 5 0 179 -132 866
-660 290 -223 533 -407 539 -409 6 -2 8 1 5 6 -3 5 -24 76 -46 158 -23 83 -49
179 -60 215 -11 36 -54 191 -96 345 -42 154 -94 343 -116 420 -92 331 -142
512 -147 533 l-5 23 294 -6 c162 -4 373 -8 469 -10 610 -13 796 -17 885 -20
55 -1 103 0 107 2 5 2 -35 38 -88 79 -102 80 -332 263 -350 279 -7 5 -58 46
-114 90 -56 44 -208 164 -337 268 -130 103 -239 187 -242 187 -4 0 -89 -55
-189 -122z"/>
</g>
</svg>
